# xmcd CD database file
#
# Track frame offsets:
#	150
#	29069
#	53825
#	78573
#	110539
#	143766
#	165881
#	194120
#	237663
#
# Disc length: 3401 seconds
#
# Revision: 0
# Processed by: cddbd v1.5.1PL2 Copyright (c) Steve Scherf et al.
# Submitted via: CDex 1.60beta1-cs1
#
DISCID=7e0d4709
DTITLE=Jean Marc Staehle - Au Coeur De La Lumiere
DYEAR=1997
DGENRE=New Age
TTITLE0=Apaisement
TTITLE1=A La Rencontre De Soi
TTITLE2=La Perle Rare
TTITLE3=Verite Cosmique
TTITLE4=Immortalite
TTITLE5=Uni A Lunivers
TTITLE6=Au Coeur De La Lumiere
TTITLE7=Le Don De Lamour
TTITLE8=Le Don De La Vie
EXTD=YEAR: 1997
EXTT0=
EXTT1=
EXTT2=
EXTT3=
EXTT4=
EXTT5=
EXTT6=
EXTT7=
EXTT8=
PLAYORDER=
